<svg width="43" height="30" viewBox="0 0 43 30" fill="none" xmlns="http://www.w3.org/2000/svg">
<path d="M0.585786 13.5858C-0.195262 14.3668 -0.195262 15.6332 0.585786 16.4142L13.3137 29.1421C14.0948 29.9232 15.3611 29.9232 16.1421 29.1421C16.9232 28.3611 16.9232 27.0948 16.1421 26.3137L4.82843 15L16.1421 3.68629C16.9232 2.90524 16.9232 1.63891 16.1421 0.857864C15.3611 0.0768158 14.0948 0.0768158 13.3137 0.857864L0.585786 13.5858ZM41 17C42.1046 17 43 16.1046 43 15C43 13.8954 42.1046 13 41 13V17ZM2 17L41 17V13L2 13L2 17Z" fill="black"/>
</svg>
